<svg xmlns="http://www.w3.org/2000/svg" style="display:none"><symbol id="i-dashboard" viewBox="0 0 24 24"><rect x="3" y="3" width="7" height="9" rx="1.5"/><rect x="14" y="3" width="7" height="5" rx="1.5"/><rect x="14" y="12" width="7" height="9" rx="1.5"/><rect x="3" y="16" width="7" height="5" rx="1.5"/></symbol><symbol id="i-users" viewBox="0 0 24 24"><path d="M16 21v-2a4 4 0 0 0-4-4H6a4 4 0 0 0-4 4v2"/><circle cx="9" cy="7" r="4"/><path d="M22 21v-2a4 4 0 0 0-3-3.87"/><path d="M16 3.13a4 4 0 0 1 0 7.75"/></symbol><symbol id="i-support" viewBox="0 0 24 24"><path d="M3 14v-3a9 9 0 0 1 18 0v3"/><path d="M21 14a2 2 0 0 1-2 2h-1v-6h1a2 2 0 0 1 2 2z"/><path d="M3 14a2 2 0 0 0 2 2h1v-6H5a2 2 0 0 0-2 2z"/><path d="M18 16v1a4 4 0 0 1-4 4h-2"/></symbol><symbol id="i-globe" viewBox="0 0 24 24"><circle cx="12" cy="12" r="9"/><path d="M3 12h18"/><path d="M12 3a14 14 0 0 1 0 18a14 14 0 0 1 0-18z"/></symbol><symbol id="i-layers" viewBox="0 0 24 24"><path d="m12 3 9 5-9 5-9-5 9-5z"/><path d="m3 13 9 5 9-5"/></symbol><symbol id="i-question" viewBox="0 0 24 24"><circle cx="12" cy="12" r="9"/><path d="M9.5 9a2.5 2.5 0 1 1 3.5 2.3c-.6.3-1 .9-1 1.6v.6"/><path d="M12 17h.01"/></symbol><symbol id="i-review" viewBox="0 0 24 24"><rect x="5" y="4" width="14" height="17" rx="2"/><path d="M9 4V3h6v1"/><path d="m9 13 2 2 4-4"/></symbol><symbol id="i-comment" viewBox="0 0 24 24"><path d="M21 12a8 8 0 0 1-11.6 7.1L4 20l1-4.4A8 8 0 1 1 21 12z"/></symbol><symbol id="i-thumbs-down" viewBox="0 0 24 24"><path d="M17 14V2"/><path d="M9 18.12 10 14H4.17a2 2 0 0 1-1.92-2.56l2.33-8A2 2 0 0 1 6.5 2H20a2 2 0 0 1 2 2v8a2 2 0 0 1-2 2h-2.76a2 2 0 0 0-1.79 1.11L12 22a3.13 3.13 0 0 1-3-3.88z"/></symbol><symbol id="i-thumbs-up" viewBox="0 0 24 24"><path d="M7 10v12"/><path d="M15 5.88 14 10h5.83a2 2 0 0 1 1.92 2.56l-2.33 8A2 2 0 0 1 17.5 22H4a2 2 0 0 1-2-2v-8a2 2 0 0 1 2-2h2.76a2 2 0 0 0 1.79-1.11L12 2a3.13 3.13 0 0 1 3 3.88z"/></symbol><symbol id="i-shield-check" viewBox="0 0 24 24"><path d="M12 3 4 6v6c0 5 3.4 8.5 8 9.5 4.6-1 8-4.5 8-9.5V6z"/><path d="m9 12 2 2 4-4"/></symbol><symbol id="i-history" viewBox="0 0 24 24"><path d="M3 12a9 9 0 1 0 3-6.7L3 8"/><path d="M3 3v5h5"/><path d="M12 7v5l4 2"/></symbol><symbol id="i-search" viewBox="0 0 24 24"><circle cx="11" cy="11" r="7"/><path d="m20 20-3.5-3.5"/></symbol><symbol id="i-plus" viewBox="0 0 24 24"><path d="M12 5v14M5 12h14"/></symbol><symbol id="i-edit" viewBox="0 0 24 24"><path d="M17 3a2.8 2.8 0 1 1 4 4L7.5 20.5 2 22l1.5-5.5z"/></symbol><symbol id="i-archive" viewBox="0 0 24 24"><rect x="2" y="3" width="20" height="5" rx="1"/><path d="M4 8v11a2 2 0 0 0 2 2h12a2 2 0 0 0 2-2V8"/><path d="M10 12h4"/></symbol><symbol id="i-restore" viewBox="0 0 24 24"><path d="M3 12a9 9 0 1 0 3-6.7L3 8"/><path d="M3 3v5h5"/></symbol><symbol id="i-trash" viewBox="0 0 24 24"><path d="M3 6h18"/><path d="M8 6V4h8v2"/><path d="M19 6l-1 14a2 2 0 0 1-2 2H8a2 2 0 0 1-2-2L5 6"/></symbol><symbol id="i-more" viewBox="0 0 24 24"><circle cx="5" cy="12" r="1.3" fill="currentColor"/><circle cx="12" cy="12" r="1.3" fill="currentColor"/><circle cx="19" cy="12" r="1.3" fill="currentColor"/></symbol><symbol id="i-chevron-down" viewBox="0 0 24 24"><path d="m6 9 6 6 6-6"/></symbol><symbol id="i-chevron-right" viewBox="0 0 24 24"><path d="m9 6 6 6-6 6"/></symbol><symbol id="i-chevron-left" viewBox="0 0 24 24"><path d="m15 6-6 6 6 6"/></symbol><symbol id="i-sun" viewBox="0 0 24 24"><circle cx="12" cy="12" r="4"/><path d="M12 2v2M12 20v2M4.9 4.9l1.4 1.4M17.7 17.7l1.4 1.4M2 12h2M20 12h2M4.9 19.1l1.4-1.4M17.7 6.3l1.4-1.4"/></symbol><symbol id="i-moon" viewBox="0 0 24 24"><path d="M21 12.8A9 9 0 1 1 11.2 3a7 7 0 0 0 9.8 9.8z"/></symbol><symbol id="i-menu" viewBox="0 0 24 24"><path d="M4 6h16M4 12h16M4 18h16"/></symbol><symbol id="i-x" viewBox="0 0 24 24"><path d="M18 6 6 18M6 6l12 12"/></symbol><symbol id="i-filter" viewBox="0 0 24 24"><path d="M3 5h18l-7 8v6l-4 2v-8z"/></symbol><symbol id="i-download" viewBox="0 0 24 24"><path d="M12 3v12"/><path d="m7 10 5 5 5-5"/><path d="M5 21h14"/></symbol><symbol id="i-upload" viewBox="0 0 24 24"><path d="M12 21V9"/><path d="m7 14 5-5 5 5"/><path d="M5 3h14"/></symbol><symbol id="i-check" viewBox="0 0 24 24"><path d="m5 12 5 5 9-10"/></symbol><symbol id="i-check-circle" viewBox="0 0 24 24"><circle cx="12" cy="12" r="9"/><path d="m8 12 3 3 5-6"/></symbol><symbol id="i-x-circle" viewBox="0 0 24 24"><circle cx="12" cy="12" r="9"/><path d="m15 9-6 6M9 9l6 6"/></symbol><symbol id="i-alert" viewBox="0 0 24 24"><path d="M10.3 3.9 1.8 18a2 2 0 0 0 1.7 3h17a2 2 0 0 0 1.7-3L13.7 3.9a2 2 0 0 0-3.4 0z"/><path d="M12 9v4"/><path d="M12 17h.01"/></symbol><symbol id="i-info" viewBox="0 0 24 24"><circle cx="12" cy="12" r="9"/><path d="M12 16v-4"/><path d="M12 8h.01"/></symbol><symbol id="i-clock" viewBox="0 0 24 24"><circle cx="12" cy="12" r="9"/><path d="M12 7v5l3 2"/></symbol><symbol id="i-trend-up" viewBox="0 0 24 24"><path d="m3 17 6-6 4 4 8-8"/><path d="M14 7h7v7"/></symbol><symbol id="i-trend-down" viewBox="0 0 24 24"><path d="m3 7 6 6 4-4 8 8"/><path d="M14 17h7v-7"/></symbol><symbol id="i-flag" viewBox="0 0 24 24"><path d="M4 22V4"/><path d="M4 15s1-1 4-1 5 2 8 2 4-1 4-1V4s-1 1-4 1-5-2-8-2-4 1-4 1"/></symbol><symbol id="i-eye" viewBox="0 0 24 24"><path d="M2 12s3.5-7 10-7 10 7 10 7-3.5 7-10 7S2 12 2 12z"/><circle cx="12" cy="12" r="3"/></symbol><symbol id="i-eye-off" viewBox="0 0 24 24"><path d="m3 3 18 18"/><path d="M10.6 5.1A10 10 0 0 1 12 5c6.5 0 10 7 10 7a17 17 0 0 1-2.7 3.6M6.6 6.6A17 17 0 0 0 2 12s3.5 7 10 7a9.7 9.7 0 0 0 5.4-1.6"/><path d="M9.9 9.9a3 3 0 0 0 4.2 4.2"/></symbol><symbol id="i-logout" viewBox="0 0 24 24"><path d="M9 21H5a2 2 0 0 1-2-2V5a2 2 0 0 1 2-2h4"/><path d="m16 17 5-5-5-5"/><path d="M21 12H9"/></symbol><symbol id="i-sliders" viewBox="0 0 24 24"><path d="M4 21v-7M4 10V3M12 21v-9M12 8V3M20 21v-5M20 12V3M1 14h6M9 8h6M17 16h6"/></symbol><symbol id="i-bell" viewBox="0 0 24 24"><path d="M6 8a6 6 0 0 1 12 0c0 7 3 9 3 9H3s3-2 3-9"/><path d="M10.3 21a1.9 1.9 0 0 0 3.4 0"/></symbol><symbol id="i-sort" viewBox="0 0 24 24"><path d="m7 15 5 5 5-5"/><path d="m7 9 5-5 5 5"/></symbol><symbol id="i-grip" viewBox="0 0 24 24"><circle cx="9" cy="6" r="1.2" fill="currentColor"/><circle cx="15" cy="6" r="1.2" fill="currentColor"/><circle cx="9" cy="12" r="1.2" fill="currentColor"/><circle cx="15" cy="12" r="1.2" fill="currentColor"/><circle cx="9" cy="18" r="1.2" fill="currentColor"/><circle cx="15" cy="18" r="1.2" fill="currentColor"/></symbol><symbol id="i-external" viewBox="0 0 24 24"><path d="M15 3h6v6"/><path d="M10 14 21 3"/><path d="M18 13v6a2 2 0 0 1-2 2H5a2 2 0 0 1-2-2V8a2 2 0 0 1 2-2h6"/></symbol><symbol id="i-reply" viewBox="0 0 24 24"><path d="m9 17-5-5 5-5"/><path d="M4 12h11a5 5 0 0 1 5 5v2"/></symbol><symbol id="i-refresh" viewBox="0 0 24 24"><path d="M21 12a9 9 0 0 1-15.5 6.2L3 16"/><path d="M3 21v-5h5"/><path d="M3 12a9 9 0 0 1 15.5-6.2L21 8"/><path d="M21 3v5h-5"/></symbol><symbol id="i-mail" viewBox="0 0 24 24"><rect x="3" y="5" width="18" height="14" rx="2"/><path d="m3 7 9 6 9-6"/></symbol><symbol id="i-ban" viewBox="0 0 24 24"><circle cx="12" cy="12" r="9"/><path d="m5.6 5.6 12.8 12.8"/></symbol><symbol id="i-languages" viewBox="0 0 24 24"><path d="m5 8 6 6"/><path d="m4 14 6-6 2-3"/><path d="M2 5h12"/><path d="M7 2h1"/><path d="m22 22-5-10-5 10"/><path d="M14 18h6"/></symbol><symbol id="i-link" viewBox="0 0 24 24"><path d="M10 13a5 5 0 0 0 7.5.5l3-3a5 5 0 0 0-7-7l-1.7 1.7"/><path d="M14 11a5 5 0 0 0-7.5-.5l-3 3a5 5 0 0 0 7 7l1.7-1.7"/></symbol><symbol id="i-copy" viewBox="0 0 24 24"><rect x="9" y="9" width="12" height="12" rx="2"/><path d="M5 15H4a1 1 0 0 1-1-1V4a1 1 0 0 1 1-1h10a1 1 0 0 1 1 1v1"/></symbol><symbol id="i-book" viewBox="0 0 24 24"><path d="M4 19.5A2.5 2.5 0 0 1 6.5 17H20V3H6.5A2.5 2.5 0 0 0 4 5.5z"/><path d="M4 19.5A2.5 2.5 0 0 0 6.5 22H20v-5"/></symbol><symbol id="i-paperclip" viewBox="0 0 24 24"><path d="m21 12-8.6 8.6a5.5 5.5 0 0 1-7.8-7.8l8.6-8.6a3.7 3.7 0 0 1 5.2 5.2l-8.6 8.6a1.8 1.8 0 0 1-2.6-2.6l7.9-7.9"/></symbol><symbol id="i-send" viewBox="0 0 24 24"><path d="m22 2-7 20-4-9-9-4z"/><path d="M22 2 11 13"/></symbol><symbol id="i-user" viewBox="0 0 24 24"><circle cx="12" cy="8" r="4"/><path d="M4 21a8 8 0 0 1 16 0"/></symbol><symbol id="i-play" viewBox="0 0 24 24"><path d="M7 4l13 8-13 8z"/></symbol><symbol id="i-target" viewBox="0 0 24 24"><circle cx="12" cy="12" r="9"/><circle cx="12" cy="12" r="5"/><circle cx="12" cy="12" r="1"/></symbol><symbol id="i-skip" viewBox="0 0 24 24"><path d="m5 4 10 8-10 8z"/><path d="M19 5v14"/></symbol><symbol id="i-lock" viewBox="0 0 24 24"><rect x="4" y="11" width="16" height="10" rx="2"/><path d="M8 11V7a4 4 0 0 1 8 0v4"/></symbol><symbol id="i-star" viewBox="0 0 24 24"><path d="m12 3 2.8 5.7 6.2.9-4.5 4.4 1.1 6.2L12 17.3 6.4 20.2l1.1-6.2L3 9.6l6.2-.9z"/></symbol><symbol id="i-zap" viewBox="0 0 24 24"><path d="M13 2 3 14h9l-1 8 10-12h-9z"/></symbol><symbol id="i-calendar" viewBox="0 0 24 24"><rect x="3" y="4" width="18" height="18" rx="2"/><path d="M16 2v4M8 2v4M3 10h18"/></symbol><symbol id="i-key" viewBox="0 0 24 24"><circle cx="7.5" cy="15.5" r="4.5"/><path d="m10.7 12.3 9.8-9.8M17 6l3 3M15 8l2 2"/></symbol><symbol id="i-monitor" viewBox="0 0 24 24"><rect x="2" y="3" width="20" height="14" rx="2"/><path d="M8 21h8M12 17v4"/></symbol><symbol id="i-inbox" viewBox="0 0 24 24"><path d="M22 12h-6l-2 3h-4l-2-3H2"/><path d="M5.5 5.1 2 12v6a2 2 0 0 0 2 2h16a2 2 0 0 0 2-2v-6l-3.5-6.9A2 2 0 0 0 16.8 4H7.2a2 2 0 0 0-1.7 1.1z"/></symbol><symbol id="i-text" viewBox="0 0 24 24"><path d="M4 7V5h16v2"/><path d="M9 19h6"/><path d="M12 5v14"/></symbol><symbol id="i-shuffle" viewBox="0 0 24 24"><path d="M2 18h1.4a4 4 0 0 0 3.3-1.7l5.6-8.6A4 4 0 0 1 15.6 6H22"/><path d="m18 2 4 4-4 4"/><path d="M2 6h1.9a4 4 0 0 1 3.2 1.6"/><path d="M22 18h-6.1a4 4 0 0 1-3.3-1.8l-.4-.6"/><path d="m18 14 4 4-4 4"/></symbol></svg>
